<svg width="96" height="96" viewBox="0 0 96 96" fill="none" xmlns="http://www.w3.org/2000/svg" role="img" aria-label="Нейродокс">
  <defs>
    <linearGradient id="mPaper" x1="46" y1="14" x2="78" y2="86" gradientUnits="userSpaceOnUse">
      <stop stop-color="#3F7BFF"/>
      <stop offset="1" stop-color="#1746B0"/>
    </linearGradient>
    <linearGradient id="mDark" x1="14" y1="14" x2="40" y2="86" gradientUnits="userSpaceOnUse">
      <stop stop-color="#1B2D49"/>
      <stop offset="1" stop-color="#0B1626"/>
    </linearGradient>
    <linearGradient id="mFold" x1="64" y1="14" x2="82" y2="32" gradientUnits="userSpaceOnUse">
      <stop stop-color="#9DBEFF"/>
      <stop offset="1" stop-color="#5E8DF6"/>
    </linearGradient>
  </defs>
  <path d="M16 86V14C16 11.79 17.79 10 20 10H30C31.27 10 32.46 10.6 33.2 11.62L37 16.9V86C37 88.21 35.21 90 33 90H20C17.79 90 16 88.21 16 86Z" fill="url(#mDark)"/>
  <path d="M30 12L70 70V52L42 12H30Z" fill="url(#mDark)" opacity="0.92"/>
  <path d="M58 86V26L70 10H78C80.21 10 82 11.79 82 14V78L70 90H62C59.79 90 58 88.21 58 86Z" fill="url(#mPaper)"/>
  <path d="M70 10V22C70 24.21 71.79 26 74 26H82L70 10Z" fill="url(#mFold)"/>
  <g stroke="#EAF1FF" stroke-width="2.6" stroke-linecap="round" opacity="0.92">
    <line x1="65" y1="40" x2="76" y2="40"/>
    <line x1="65" y1="48" x2="76" y2="48"/>
    <line x1="65" y1="56" x2="76" y2="56"/>
    <line x1="65" y1="64" x2="73" y2="64"/>
  </g>
</svg>
